<mxfile host="app.diagrams.net" modified="2024-01-24T10:43:09.619Z" agent="Mozilla/5.0 (Windows NT 10.0; Win64; x64) AppleWebKit/537.36 (KHTML, like Gecko) Chrome/120.0.0.0 Safari/537.36 Edg/120.0.0.0" etag="N4jk-jsUy2cN4h4K9fx3" version="23.0.0" type="device">
  <diagram id="C5RBs43oDa-KdzZeNtuy" name="Page-1">
    <mxGraphModel dx="1387" dy="802" grid="1" gridSize="10" guides="1" tooltips="1" connect="1" arrows="1" fold="1" page="1" pageScale="1" pageWidth="827" pageHeight="1169" math="0" shadow="0">
      <root>
        <mxCell id="WIyWlLk6GJQsqaUBKTNV-0" />
        <mxCell id="WIyWlLk6GJQsqaUBKTNV-1" parent="WIyWlLk6GJQsqaUBKTNV-0" />
        <mxCell id="tfN6FC_vOaqOsE_hunRQ-7" value="" style="rounded=0;html=1;jettySize=auto;orthogonalLoop=1;fontSize=11;endArrow=block;endFill=0;endSize=8;strokeWidth=1;shadow=0;labelBackgroundColor=none;edgeStyle=orthogonalEdgeStyle;entryX=0.5;entryY=0;entryDx=0;entryDy=0;" edge="1" source="tfN6FC_vOaqOsE_hunRQ-8" target="tfN6FC_vOaqOsE_hunRQ-11" parent="WIyWlLk6GJQsqaUBKTNV-1">
          <mxGeometry relative="1" as="geometry">
            <mxPoint x="425" y="150" as="targetPoint" />
          </mxGeometry>
        </mxCell>
        <mxCell id="tfN6FC_vOaqOsE_hunRQ-8" value="&lt;font style=&quot;font-size: 20px;&quot;&gt;start&lt;/font&gt;" style="rounded=1;whiteSpace=wrap;html=1;fontSize=12;glass=0;strokeWidth=1;shadow=0;arcSize=50;fillColor=#dae8fc;strokeColor=#6c8ebf;" vertex="1" parent="WIyWlLk6GJQsqaUBKTNV-1">
          <mxGeometry x="355" y="70" width="120" height="40" as="geometry" />
        </mxCell>
        <mxCell id="tfN6FC_vOaqOsE_hunRQ-9" value="&lt;font style=&quot;font-size: 21px;&quot;&gt;end&lt;/font&gt;" style="rounded=1;whiteSpace=wrap;html=1;arcSize=50;fillColor=#dae8fc;strokeColor=#6c8ebf;" vertex="1" parent="WIyWlLk6GJQsqaUBKTNV-1">
          <mxGeometry x="360" y="690" width="120" height="40" as="geometry" />
        </mxCell>
        <mxCell id="tfN6FC_vOaqOsE_hunRQ-11" value="&lt;font style=&quot;font-size: 20px;&quot;&gt;read Num&lt;/font&gt;" style="shape=parallelogram;perimeter=parallelogramPerimeter;whiteSpace=wrap;html=1;fixedSize=1;fillColor=#d5e8d4;strokeColor=#82b366;" vertex="1" parent="WIyWlLk6GJQsqaUBKTNV-1">
          <mxGeometry x="310" y="160" width="210" height="60" as="geometry" />
        </mxCell>
        <mxCell id="tfN6FC_vOaqOsE_hunRQ-14" value="&lt;h3&gt;&lt;font style=&quot;font-size: 20px;&quot;&gt;Result = Num mod 2&lt;/font&gt;&lt;/h3&gt;" style="rounded=0;whiteSpace=wrap;html=1;fillColor=#dae8fc;strokeColor=#6c8ebf;" vertex="1" parent="WIyWlLk6GJQsqaUBKTNV-1">
          <mxGeometry x="257" y="280" width="316" height="60" as="geometry" />
        </mxCell>
        <mxCell id="tfN6FC_vOaqOsE_hunRQ-15" value="" style="rounded=0;html=1;jettySize=auto;orthogonalLoop=1;fontSize=11;endArrow=block;endFill=0;endSize=8;strokeWidth=1;shadow=0;labelBackgroundColor=none;edgeStyle=orthogonalEdgeStyle;entryX=0.5;entryY=0;entryDx=0;entryDy=0;" edge="1" parent="WIyWlLk6GJQsqaUBKTNV-1" source="tfN6FC_vOaqOsE_hunRQ-11" target="tfN6FC_vOaqOsE_hunRQ-14">
          <mxGeometry relative="1" as="geometry">
            <mxPoint x="414" y="270" as="targetPoint" />
            <mxPoint x="414" y="220" as="sourcePoint" />
          </mxGeometry>
        </mxCell>
        <mxCell id="tfN6FC_vOaqOsE_hunRQ-16" value="&lt;font style=&quot;font-size: 20px;&quot;&gt;&lt;font style=&quot;font-size: 20px;&quot;&gt;R&lt;/font&gt;esult = 0 ?&amp;nbsp;&lt;/font&gt;" style="rhombus;whiteSpace=wrap;html=1;fillColor=#f8cecc;strokeColor=#b85450;" vertex="1" parent="WIyWlLk6GJQsqaUBKTNV-1">
          <mxGeometry x="327.5" y="390" width="175" height="170" as="geometry" />
        </mxCell>
        <mxCell id="tfN6FC_vOaqOsE_hunRQ-17" value="" style="rounded=0;html=1;jettySize=auto;orthogonalLoop=1;fontSize=11;endArrow=block;endFill=0;endSize=8;strokeWidth=1;shadow=0;labelBackgroundColor=none;edgeStyle=orthogonalEdgeStyle;exitX=0.5;exitY=1;exitDx=0;exitDy=0;" edge="1" parent="WIyWlLk6GJQsqaUBKTNV-1" source="tfN6FC_vOaqOsE_hunRQ-14" target="tfN6FC_vOaqOsE_hunRQ-16">
          <mxGeometry relative="1" as="geometry">
            <mxPoint x="414" y="360" as="targetPoint" />
            <mxPoint x="419" y="360" as="sourcePoint" />
            <Array as="points" />
          </mxGeometry>
        </mxCell>
        <mxCell id="tfN6FC_vOaqOsE_hunRQ-18" value="" style="rounded=0;html=1;jettySize=auto;orthogonalLoop=1;fontSize=11;endArrow=block;endFill=0;endSize=8;strokeWidth=1;shadow=0;labelBackgroundColor=none;edgeStyle=orthogonalEdgeStyle;exitX=0;exitY=0.5;exitDx=0;exitDy=0;entryX=0.5;entryY=0;entryDx=0;entryDy=0;curved=0;" edge="1" parent="WIyWlLk6GJQsqaUBKTNV-1" source="tfN6FC_vOaqOsE_hunRQ-16" target="tfN6FC_vOaqOsE_hunRQ-20">
          <mxGeometry relative="1" as="geometry">
            <mxPoint x="130" y="425" as="targetPoint" />
            <mxPoint x="342.4999999999998" y="400" as="sourcePoint" />
            <Array as="points">
              <mxPoint x="327" y="470" />
              <mxPoint x="115" y="470" />
            </Array>
          </mxGeometry>
        </mxCell>
        <mxCell id="tfN6FC_vOaqOsE_hunRQ-21" value="&lt;font style=&quot;font-size: 30px;&quot;&gt;no&lt;/font&gt;" style="edgeLabel;html=1;align=center;verticalAlign=middle;resizable=0;points=[];" vertex="1" connectable="0" parent="tfN6FC_vOaqOsE_hunRQ-18">
          <mxGeometry x="-0.2377" y="5" relative="1" as="geometry">
            <mxPoint x="1" y="-5" as="offset" />
          </mxGeometry>
        </mxCell>
        <mxCell id="tfN6FC_vOaqOsE_hunRQ-20" value="&lt;font style=&quot;font-size: 20px;&quot;&gt;print &quot;Odd&quot;&lt;/font&gt;" style="shape=parallelogram;perimeter=parallelogramPerimeter;whiteSpace=wrap;html=1;fixedSize=1;fillColor=#d5e8d4;strokeColor=#82b366;" vertex="1" parent="WIyWlLk6GJQsqaUBKTNV-1">
          <mxGeometry x="50" y="500" width="130" height="60" as="geometry" />
        </mxCell>
        <mxCell id="tfN6FC_vOaqOsE_hunRQ-23" value="&lt;font style=&quot;font-size: 20px;&quot;&gt;print &quot;Odd&quot;&lt;/font&gt;" style="shape=parallelogram;perimeter=parallelogramPerimeter;whiteSpace=wrap;html=1;fixedSize=1;fillColor=#d5e8d4;strokeColor=#82b366;" vertex="1" parent="WIyWlLk6GJQsqaUBKTNV-1">
          <mxGeometry x="680" y="500" width="130" height="60" as="geometry" />
        </mxCell>
        <mxCell id="tfN6FC_vOaqOsE_hunRQ-25" value="" style="endArrow=classic;html=1;rounded=0;exitX=1;exitY=0.5;exitDx=0;exitDy=0;entryX=0.641;entryY=-0.061;entryDx=0;entryDy=0;entryPerimeter=0;edgeStyle=orthogonalEdgeStyle;" edge="1" parent="WIyWlLk6GJQsqaUBKTNV-1">
          <mxGeometry width="50" height="50" relative="1" as="geometry">
            <mxPoint x="502.4999999999998" y="478.65999999999997" as="sourcePoint" />
            <mxPoint x="763.3299999999999" y="500.0000000000001" as="targetPoint" />
            <Array as="points">
              <mxPoint x="503" y="480" />
              <mxPoint x="763" y="480" />
            </Array>
          </mxGeometry>
        </mxCell>
        <mxCell id="tfN6FC_vOaqOsE_hunRQ-26" value="&lt;font style=&quot;font-size: 30px;&quot;&gt;yes&lt;/font&gt;" style="edgeLabel;html=1;align=center;verticalAlign=middle;resizable=0;points=[];" vertex="1" connectable="0" parent="WIyWlLk6GJQsqaUBKTNV-1">
          <mxGeometry x="620.0002451024548" y="489.9963548741857" as="geometry">
            <mxPoint x="-2" y="-16" as="offset" />
          </mxGeometry>
        </mxCell>
        <mxCell id="tfN6FC_vOaqOsE_hunRQ-30" value="" style="endArrow=classic;html=1;rounded=0;exitX=0.383;exitY=0.978;exitDx=0;exitDy=0;exitPerimeter=0;entryX=0;entryY=0.5;entryDx=0;entryDy=0;" edge="1" parent="WIyWlLk6GJQsqaUBKTNV-1" source="tfN6FC_vOaqOsE_hunRQ-20" target="tfN6FC_vOaqOsE_hunRQ-9">
          <mxGeometry width="50" height="50" relative="1" as="geometry">
            <mxPoint x="390" y="650" as="sourcePoint" />
            <mxPoint x="100" y="730" as="targetPoint" />
            <Array as="points">
              <mxPoint x="100" y="710" />
            </Array>
          </mxGeometry>
        </mxCell>
        <mxCell id="tfN6FC_vOaqOsE_hunRQ-31" value="" style="endArrow=classic;html=1;rounded=0;entryX=1;entryY=0.5;entryDx=0;entryDy=0;exitX=0.5;exitY=1;exitDx=0;exitDy=0;" edge="1" parent="WIyWlLk6GJQsqaUBKTNV-1" source="tfN6FC_vOaqOsE_hunRQ-23" target="tfN6FC_vOaqOsE_hunRQ-9">
          <mxGeometry width="50" height="50" relative="1" as="geometry">
            <mxPoint x="390" y="540" as="sourcePoint" />
            <mxPoint x="440" y="490" as="targetPoint" />
            <Array as="points">
              <mxPoint x="745" y="710" />
            </Array>
          </mxGeometry>
        </mxCell>
      </root>
    </mxGraphModel>
  </diagram>
</mxfile>
